<svg width="24" height="24" xmlns="http://www.w3.org/2000/svg">

 <g>
  <title>background</title>
  <rect fill="none" id="canvas_background" height="402" width="582" y="-1" x="-1"/>
 </g>
 <g>
  <title>Layer 1</title>
  <path fill="#ffffff" id="svg_2" d="m22.957401,-0.063898l-22,0c-0.6,0 -1,0.4 -1,1l0,22c0,0.6 0.4,1 1,1l22,0c0.6,0 1,-0.4 1,-1l0,-22c0,-0.6 -0.4,-1 -1,-1zm-21,22l0,-20l2,0l0,20l-2,0zm3,-13.900001c1.400001,-2.4 4,-4.1 7,-4.1c4.4,0 8,3.6 8,7.999999s-3.6,8.000001 -8,8.000001c-3,0 -5.6,-1.700001 -7,-4.100001l0,-7.799999zm17,13.900001l-17,0l0,-4.299999c1.7,2 4.2,3.299999 7,3.299999c5,0 9,-4 9,-9.000001s-4,-8.999999 -9,-8.999999c-2.8,0 -5.300001,1.3 -7,3.3l0,-4.3l17,0l0,20z"/>
  <path fill="#ffffff" id="svg_3" d="m12.383389,14.936101c1.7,0 3,-1.299999 3,-3s-1.3,-3 -3,-3s-3,1.300001 -3,3s1.3,3 3,3zm0,-5c1.1,0 2,0.9 2,2s-0.9,2 -2,2s-2,-0.9 -2,-2s0.9,-2 2,-2z"/>
 </g>
</svg>