<svg width="512" height="512" xmlns="http://www.w3.org/2000/svg">

 <g>
  <title>background</title>
  <rect fill="none" id="canvas_background" height="402" width="582" y="-1" x="-1"/>
 </g>
 <g>
  <title>Layer 1</title>
  <path id="svg_1" fill="#000000" d="m256.5,20c-130.099998,0 -235.5,105.400002 -235.5,235.5s105.400002,235.5 235.5,235.5s235.5,-105.399994 235.5,-235.5s-105.399994,-235.5 -235.5,-235.5zm-0.5,440.5c-112.899994,0 -204.5,-91.600006 -204.5,-204.5s91.600006,-204.5 204.5,-204.5s204.5,91.600006 204.5,204.5s-91.600006,204.5 -204.5,204.5z"/>
  <path id="svg_2" opacity="0.2" fill="#FFFFFF" d="m423.100006,89l-22.399994,22.400002c37,36.999992 59.799988,88.099998 59.799988,144.599998c0,112.900024 -91.599976,204.5 -204.5,204.5c-56.399994,0 -107.599991,-22.899994 -144.599998,-59.799988l-21.400002,21.399994c92,92.000031 241.100006,92.000031 333,0s92,-241.100006 0.100006,-333.100006z"/>
  <circle id="svg_3" fill="#000000" r="180" cy="256" cx="256"/>
  <path id="svg_5" fill="#E6E7E8" d="m154.399994,264.899994c-0.400009,0 -0.800003,0.299988 -0.800003,0.799988l-1.5,11.600006l1.5,11.399994c0.100006,0.5 0.399994,0.800018 0.800003,0.800018c0.399994,0 0.800003,-0.300018 0.800003,-0.800018l0,0l0,0c0,0 0,0 0,0l1.799988,-11.399994l-1.799988,-11.600006c-0.099991,-0.499969 -0.399994,-0.799988 -0.800003,-0.799988z"/>
  <path id="svg_6" fill="#E6E7E8" d="m162.899994,258.5c-0.100006,-0.5 -0.400009,-0.799988 -0.900009,-0.799988c-0.399994,0 -0.799988,0.399994 -0.899994,0.799988c0,0 -2,18.700012 -2,18.700012l2,18.299988c0.100006,0.5 0.399994,0.799988 0.899994,0.799988c0.400009,0 0.800003,-0.299988 0.900009,-0.799988l2.300003,-18.299988l-2.300003,-18.700012z"/>
  <path id="svg_7" fill="#E6E7E8" d="m195.100006,241.300003c-0.800003,0 -1.5,0.699997 -1.599991,1.599991l-1.600006,34.399994l1.600006,22.200012c0,0.900024 0.699997,1.600006 1.599991,1.600006c0.800003,0 1.5,-0.699982 1.600006,-1.600006l0,0l1.800003,-22.200012l-1.800003,-34.399994c-0.000015,-0.899994 -0.700012,-1.599991 -1.600006,-1.599991z"/>
  <path id="svg_8" fill="#E6E7E8" d="m178.5,253.300003c-0.600006,0 -1.199997,0.5 -1.199997,1.199997l-1.800003,22.799988l1.800003,22c0.099991,0.700012 0.599991,1.200012 1.199997,1.200012c0.600006,0 1.199997,-0.5 1.199997,-1.200012l2.100006,-22l-2.100006,-22.799988c-0.099991,-0.699997 -0.599991,-1.199997 -1.199997,-1.199997z"/>
  <path id="svg_9" fill="#E6E7E8" d="m212.100006,301c1,0 1.900009,-0.799988 1.900009,-1.899994l1.599991,-21.800018l-1.599991,-45.799988c0,-1.100006 -0.900009,-1.899994 -1.900009,-1.899994c-1,0 -1.899994,0.799988 -1.899994,1.899994c0,0 -1.400009,45.700012 -1.400009,45.700012l1.400009,21.799988c-0.000015,1.200012 0.799988,2 1.899994,2z"/>
  <path id="svg_10" fill="#E6E7E8" d="m246.800003,301.100006c1.399994,0 2.599991,-1.199982 2.599991,-2.600006l0,0l0,0l1.100006,-21.199982l-1.100006,-52.800003c0,-1.400009 -1.199997,-2.600006 -2.599991,-2.600006c-1.400009,0 -2.600006,1.199997 -2.600006,2.600006l-1,52.800003c0,0 1,21.199982 1,21.199982c0,1.399994 1.100006,2.600006 2.600006,2.600006z"/>
  <path id="svg_11" fill="#E6E7E8" d="m229.300003,301c1.199997,0 2.199997,-1 2.300003,-2.299988l0,0l1.399994,-21.5l-1.399994,-46.100006c0,-1.300003 -1,-2.300003 -2.300003,-2.300003c-1.300003,0 -2.300003,1 -2.300003,2.300003l-1.199997,46.100006l1.199997,21.5c0,1.299988 1,2.299988 2.300003,2.299988z"/>
  <path id="svg_12" fill="#E6E7E8" d="m186.800003,300.799988c0.699997,0 1.300003,-0.600006 1.399994,-1.399994l2,-22.200012l-2,-21.100006c-0.099991,-0.799988 -0.699997,-1.399979 -1.399994,-1.399979c-0.800003,0 -1.400009,0.599991 -1.400009,1.399979l-1.699997,21.100006l1.699997,22.200012c0,0.800018 0.600006,1.399994 1.400009,1.399994z"/>
  <path id="svg_13" fill="#E6E7E8" d="m170.199997,299.600006c0.5,0 1,-0.399994 1,-1l2.199997,-21.399994l-2.199997,-22.199997c-0.099991,-0.600006 -0.5,-1 -1,-1c-0.5,0 -1,0.399994 -1,1c0,0 -1.899994,22.199997 -1.899994,22.199997l1.899994,21.299988c0,0.700012 0.5,1.100006 1,1.100006z"/>
  <path id="svg_14" fill="#E6E7E8" d="m238,230.399994c-1.399994,0 -2.399994,1.099991 -2.5,2.5l-1.100006,44.399994l1.100006,21.400024c0,1.399994 1.100006,2.399994 2.5,2.399994c1.399994,0 2.399994,-1.100006 2.5,-2.5l0,0l1.199997,-21.399994l-1.199997,-44.400024c-0.100006,-1.299988 -1.100006,-2.399994 -2.5,-2.399994z"/>
  <path id="svg_15" fill="#E6E7E8" d="m203.600006,301c0.900009,0 1.699997,-0.799988 1.800003,-1.700012l1.699997,-22.099976l-1.699997,-42.200012c0,-1 -0.800003,-1.699997 -1.800003,-1.699997c-0.899994,0 -1.699997,0.800003 -1.800003,1.699997c0,0 -1.5,42.200012 -1.5,42.200012l1.5,22.099976c0.099991,1 0.800003,1.700012 1.800003,1.700012z"/>
  <path id="svg_16" fill="#E6E7E8" d="m222.800003,299l0,0l1.5,-21.700012l-1.5,-47.299988c0,-1.199997 -1,-2.100006 -2.100006,-2.100006c-1.099991,0 -2.099991,0.900009 -2.099991,2.100006l-1.300003,47.299988l1.300003,21.700012c0,1.200012 1,2.100006 2.099991,2.100006c1.100006,-0.100006 2,-1 2.100006,-2.100006l0,0z"/>
  <path id="svg_17" fill="#E6E7E8" d="m334.399994,250c-3.5,0 -6.899994,0.699997 -9.899994,2c-2,-23.100006 -21.400024,-41.100006 -45,-41.100006c-5.800018,0 -11.400024,1.100006 -16.400024,3.100006c-1.899994,0.699997 -2.399994,1.5 -2.5,3l0,81.200012c0,1.599976 1.200012,2.899994 2.800018,3c0.100006,0 70.5,0 70.899994,0c14.100006,0 25.600006,-11.5 25.600006,-25.600006c0.100006,-14.200012 -11.399994,-25.600006 -25.5,-25.600006z"/>
  <path id="svg_18" fill="#E6E7E8" d="m255.5,216.800003c-1.5,0 -2.800003,1.300003 -2.800003,2.800003l-1.199997,57.600006l1.199997,20.899994c0,1.5 1.300003,2.799988 2.800003,2.799988c1.5,0 2.799988,-1.299988 2.799988,-2.799988l0,0l1.300018,-20.899994l-1.300018,-57.600006c0,-1.5 -1.299988,-2.800003 -2.799988,-2.800003z"/>
  <path id="svg_19" opacity="0.2" fill="#FFFFFF" d="m128.100006,382.600006c-70.300007,-70.300018 -70.300007,-184.300003 0,-254.600006s184.300018,-70.299999 254.600006,0"/>
 </g>
</svg>