<svg width="595.3" height="690" xmlns="http://www.w3.org/2000/svg">

 <g>
  <title>background</title>
  <rect fill="none" id="canvas_background" height="402" width="582" y="-1" x="-1"/>
 </g>
 <g>
  <title>Layer 1</title>
  <polygon fill="#ffffff" id="svg_2" points="292.5,374.2 221.9,303.6 180.4,345.1 192.2,356.9 212.9,336.1 224.7,348 204,368.7 221.8,386.5 235.1,373.2     246.9,385 233.6,398.3 251,415.7   "/>
  <path fill="#ffffff" id="svg_3" d="m389.399994,360.200012l11.100006,-11.100006c4,-4 6.099976,-9.199982 6.099976,-14.799988c0,-5.600006 -2.199982,-10.899994 -6.099976,-14.800018c-4,-4 -9.200012,-6.099976 -14.800018,-6.099976c-5.600006,0 -10.899994,2.199982 -14.799988,6.099976l-163.100006,163c-0.300003,0.300018 -0.599991,0.700012 -0.699997,1.100006l-15,44.199982l44.5,-15.099976c0.199997,-0.099976 0.5,-0.299988 0.899994,-0.599976l0.5,-0.500031l-17.5,-17.5l151.500015,-151.300018l17.399994,17.400024z"/>
  <path fill="#ffffff" id="svg_4" d="m297.600006,76.599998l-297.600006,172.200005l0,344.400009l297.600006,172.199951l297.600006,-172.199951l0,-344.400009l-297.600006,-172.200005zm129.100006,431.900002l-41.400024,41.5c-6.5,6.5 -17.200012,6.5 -23.700012,0l-12.299988,-12.299988l-11.200012,-11.200012l-45.699982,-45.600006l-43.099991,43.100006c-2,2 -4.400009,3.5 -7,4.5l-76.900009,26.099976l26,-76.699982c1.100006,-3 2.700012,-5.299988 4.600006,-7.199982l43.100006,-43.100006l-47,-47l-1.300003,-1.299988l-22.300003,-22.300018c-6.5,-6.5 -6.5,-17.200012 0,-23.700012l41.5,-41.5c6.5,-6.5 17.199997,-6.5 23.699997,0l70.599991,70.600006l54.800018,-54.799988c7.100006,-7.100006 16.600006,-11 26.699982,-11c10.100006,0 19.5,3.899994 26.700012,11c7.100006,7.100006 11,16.600006 11,26.699982c0,10.100006 -3.899994,19.5 -11,26.700012l-54.799988,54.799988l69.099976,69.100006c6.5,6.399994 6.5,17.100006 -0.099976,23.600006z"/>
  <polygon fill="#ffffff" id="svg_5" points="304.3,469 320.3,485.1 333.7,471.7 345.5,483.6 332.2,496.9 350,514.7 370.7,493.9 382.5,505.8 361.8,526.5     373.4,538.1 414.9,496.7 345.8,427.6   "/>
 </g>
</svg>